PathFileType	4	(X/Y/Z)	43_1_41_p0_0-268_filt_butterworth.trc
DataRate	CameraRate	NumFrames	NumMarkers	Units	OrigDataRate	OrigDataStartFrame	OrigNumFrames
59.0	59.0	4	27	m	59.0	0	268
Frame#	Time	RHip			RKnee			RAnkle			RBigToe			RSmallToe			RHeel			LHip			LKnee			LAnkle			LBigToe			LSmallToe			LHeel			Neck			Head			Nose			RShoulder			RElbow			RWrist			RThumb			RIndex			RPinky			LShoulder			LElbow			LWrist			LThumb			LIndex			LPinky			
		X1	Y1	Z1	X2	Y2	Z2	X3	Y3	Z3	X4	Y4	Z4	X5	Y5	Z5	X6	Y6	Z6	X7	Y7	Z7	X8	Y8	Z8	X9	Y9	Z9	X10	Y10	Z10	X11	Y11	Z11	X12	Y12	Z12	X13	Y13	Z13	X14	Y14	Z14	X15	Y15	Z15	X16	Y16	Z16	X17	Y17	Z17	X18	Y18	Z18	X19	Y19	Z19	X20	Y20	Z20	X21	Y21	Z21	X22	Y22	Z22	X23	Y23	Z23	X24	Y24	Z24	X25	Y25	Z25	X26	Y26	Z26	X27	Y27	Z27	
0	0.0	0.2324431081208393	0.9718173832120991	0.33938622620410464	0.18867715512999778	0.5081040054489251	0.48764937989083795	0.17293491789541995	0.13184636917499631	0.5213459166759745	0.13855293792916792	0.0800809582133548	0.3826202456820552	0.20572562130348704	0.0800032952698205	0.398280106163463	0.13600723906794002	0.07887301628786572	0.6015067630483348	0.03315652678356641	0.9772563209976974	0.3473500207426204	-0.02917405925228354	0.5336944408285801	0.4502425411263771	-0.04605845453066036	0.13281515926349047	0.5024204333354637	-0.015940078878001064	0.10458347064858362	0.3502197544211664	-0.07518888703186252	0.10086148128966771	0.37714614518126294	-0.04398735588644337	0.06749421650904311	0.5518571108037571	0.16162693235838108	1.5210591807199845	0.31391432414668874	0.17732656562415142	1.76533892741992	0.2554875413814276	0.1568502884399579	1.627034513581423	0.20477266125671678	0.2983536336306367	1.4277492845937119	0.33378284552849413	0.30996523559693434	1.1529979983071226	0.32167959431599896	0.196149715505148	0.9286081233961426	0.22115273202361818	0.10313115217575819	0.8410543661488471	0.1917362195826482	0.10447913831138596	0.8328023735043015	0.20347796726394562	0.11977951602533549	0.8239510694952954	0.23328068518938072	0.00358775250082014	1.4462632250533969	0.35295340141823084	-0.02210293759584415	1.1777908388504699	0.2857932856015031	0.0684293478980726	0.9399563882208877	0.19228742868837273	0.12945781176940124	0.855819844147727	0.19224478201176787	0.11664492698097265	0.8361256024516585	0.19143156621035215	0.09797677329950592	0.8287190129927821	0.2148364799299361	
1	0.0169491525423728	0.23329041265081193	0.9719070955826679	0.3401781340213676	0.18851519125576296	0.5078579869627989	0.4870810281703306	0.17210120113738236	0.13144762723286305	0.5202623347317054	0.1385916202951758	0.08011798726480804	0.38262108301673725	0.20921076188185453	0.08415781313720616	0.3908893089416926	0.13676261025335942	0.07765285879844987	0.6012889061220413	0.034217795995355606	0.9770906986200492	0.3468340013448621	-0.029121448977095538	0.5325244679426304	0.45084104054504504	-0.04628848829472245	0.1301045221664573	0.503256328045693	-0.012953426202698844	0.10766107660693225	0.34411340018806663	-0.07515198982977239	0.10084387704482196	0.3770322555977399	-0.04469463465800112	0.06695477023947603	0.5526392680366499	0.1616031636409952	1.5210678120258845	0.31394907745826084	0.1744986526711411	1.7656307035080243	0.2609416343207652	0.15895296436162365	1.6253716000777068	0.20717744308053485	0.29835392452811227	1.427707310023489	0.33378054427412085	0.31235732679329475	1.1553115454833784	0.31702724528775583	0.1967499054230499	0.928776182421232	0.22060106823865389	0.10270153259428946	0.8435350884291305	0.1855057604244713	0.10395573734406387	0.834316293388052	0.19749088659879094	0.11965637831743396	0.8240224169613589	0.23303970984603037	0.0022799450042051534	1.4463519498935344	0.3514974100378616	-0.022109544823080425	1.1778325245697814	0.2858141208770767	0.0684049363587588	0.9394218451572127	0.19450354569837397	0.12566009906020614	0.8540605280265214	0.19173103752999637	0.11738450453192137	0.8380763480524316	0.18624861713997315	0.09771788898145235	0.8290276266064895	0.21022980002274638	
2	0.0338983050847457	0.23388763358183476	0.9718713183740139	0.3408187676985736	0.18840168117135234	0.5076481275603782	0.48656841312978216	0.17136403917040485	0.13112552767343244	0.5193228656456518	0.13860779825237043	0.08015486724746781	0.3826136797281749	0.2114260729467809	0.08678006166536596	0.38617009606855907	0.13731289401600422	0.07667782736661508	0.6010669265009972	0.035040020082775424	0.9768192423205444	0.34648976160213313	-0.029081633947746897	0.5315966845539333	0.45132355266343077	-0.04649178222061504	0.127892368496282	0.503913381227772	-0.01088317818417223	0.10989111615760547	0.33989175691688467	-0.07512149172186064	0.1008488533762644	0.37694593027120243	-0.045300301944887635	0.06649017408273383	0.5533251738006493	0.16159023573790435	1.5210691525681581	0.3139605311112874	0.17271029090296822	1.7658192561354706	0.26439962687562296	0.15999161181545554	1.6243147697547822	0.2084421734673373	0.29835397174639555	1.4276833070709984	0.3337777132575972	0.31411176996890344	1.15685083775414	0.3135421919360731	0.19678475788706537	0.9291645177186606	0.21901741964335938	0.1024341358442944	0.844811475349851	0.18163188352229825	0.10365936345495945	0.8353582518928547	0.1936296352732666	0.11959454882766467	0.8240868930141794	0.2327878006698101	0.0013753074551765571	1.4464180514928935	0.35050483699544166	-0.022115153628122112	1.1778685417528014	0.2858248582399906	0.06839204921411778	0.9392284077553981	0.1952859896789974	0.12308439888583182	0.8527701176924101	0.19167118697953972	0.11789362870606586	0.8390381469461682	0.18334626099152018	0.09743741600866361	0.8290369708797415	0.20724095495490416	
3	0.0508474576271186	0.2342577712879197	0.9717241832132999	0.3413173174671968	0.18833190330380467	0.507466045082807	0.48610773174085553	0.17071782998451876	0.13087365489453578	0.5185177750345493	0.1386066126885297	0.08018905854041103	0.3825992046966585	0.2126149307456537	0.08816596876070916	0.38361275206752365	0.13767585965876739	0.0759265496280561	0.6008414767252935	0.035637646796884755	0.9764529228060532	0.3463071145479254	-0.02905322600457532	0.5308871550630607	0.4516999496515682	-0.04667011811073367	0.1261397964934288	0.5044072321936915	-0.00957761665349969	0.11138892830897808	0.33723810719268726	-0.07509764572585385	0.10086994390848622	0.37688408314362787	-0.04580576949820373	0.06609705860125259	0.553918358588205	0.16158572359383075	1.52106482739111	0.3139549120172336	0.17176057778411735	1.7659244968674195	0.2662471260523303	0.16019250962101086	1.6237478656900919	0.2088052900834887	0.29835363459679703	1.4276738218638285	0.3337741454162596	0.31532022124129205	1.1577540201126864	0.3110679638500784	0.1964043298258895	0.9296985564771381	0.2167421729658135	0.10229695481324268	0.8451503569381286	0.17964728657385304	0.10353592905503771	0.8359876162413021	0.19149047685724901	0.11958075572294406	0.8241418296460958	0.2325469772887343	0.000805617606370742	1.4464648468420258	0.34989627878230956	-0.022120000443070307	1.177899815680064	0.2858272034762441	0.06837798711247806	0.93929338459003	0.19497632648989366	0.12151478488296813	0.8519090963669682	0.19194638224111094	0.11820186076182636	0.8392541544677752	0.18216516743561598	0.09714543974870739	0.8288500397128208	0.20549061651135747	
